<mxfile host="65bd71144e">
    <diagram id="Q0dFu-Esab8qPG_QvEt0" name="Page-1">
        <mxGraphModel dx="2663" dy="1277" grid="0" gridSize="10" guides="1" tooltips="1" connect="1" arrows="1" fold="1" page="0" pageScale="1" pageWidth="827" pageHeight="1169" background="#FFFFFF" math="0" shadow="0">
            <root>
                <mxCell id="0"/>
                <mxCell id="1" parent="0"/>
                <mxCell id="2" value="&lt;&lt;interface&gt;&gt;&#10;LivraisonInterface" style="swimlane;fontStyle=0;childLayout=stackLayout;horizontal=1;startSize=30;horizontalStack=0;resizeParent=1;resizeParentMax=0;resizeLast=0;collapsible=1;marginBottom=0;rounded=0;labelBackgroundColor=none;swimlaneFillColor=default;strokeColor=#666666;fillColor=#f5f5f5;fontColor=#000000;" parent="1" vertex="1">
                    <mxGeometry x="344" y="610" width="140" height="50" as="geometry"/>
                </mxCell>
                <mxCell id="8" value="&lt;span&gt;+calculLivraison(prix)&lt;/span&gt;" style="text;html=1;align=center;verticalAlign=middle;resizable=0;points=[];autosize=1;rounded=0;fontStyle=0;labelBackgroundColor=none;strokeColor=#666666;fillColor=#f5f5f5;fontColor=#000000;" parent="2" vertex="1">
                    <mxGeometry y="30" width="140" height="20" as="geometry"/>
                </mxCell>
                <mxCell id="62" style="edgeStyle=none;html=1;fontSize=12;endArrow=none;endFill=0;strokeWidth=1;dashed=1;fontColor=#000000;labelBackgroundColor=none;startArrow=open;startFill=0;strokeColor=#666666;fillColor=#f5f5f5;" parent="1" source="9" target="2" edge="1">
                    <mxGeometry relative="1" as="geometry"/>
                </mxCell>
                <mxCell id="9" value="&lt;&lt;abstract&gt;&gt;&#10;LivraisonEntity" style="swimlane;fontStyle=0;childLayout=stackLayout;horizontal=1;startSize=30;horizontalStack=0;resizeParent=1;resizeParentMax=0;resizeLast=0;collapsible=1;marginBottom=0;rounded=0;labelBackgroundColor=none;swimlaneFillColor=default;strokeColor=#666666;fillColor=#f5f5f5;fontColor=#000000;" parent="1" vertex="1">
                    <mxGeometry x="239" y="705" width="350" height="141" as="geometry"/>
                </mxCell>
                <mxCell id="10" value="&lt;span&gt;#id&lt;br&gt;&lt;/span&gt;" style="text;html=1;align=center;verticalAlign=middle;resizable=0;points=[];autosize=1;rounded=0;fontStyle=0;labelBackgroundColor=none;strokeColor=#666666;fillColor=#f5f5f5;fontColor=#000000;" parent="9" vertex="1">
                    <mxGeometry y="30" width="350" height="20" as="geometry"/>
                </mxCell>
                <mxCell id="14" value="&lt;span&gt;#taxe&lt;br&gt;&lt;/span&gt;" style="text;html=1;align=center;verticalAlign=middle;resizable=0;points=[];autosize=1;rounded=0;fontStyle=0;labelBackgroundColor=none;strokeColor=#666666;fillColor=#f5f5f5;fontColor=#000000;" parent="9" vertex="1">
                    <mxGeometry y="50" width="350" height="20" as="geometry"/>
                </mxCell>
                <mxCell id="15" value="&lt;span&gt;#fdp&lt;br&gt;&lt;/span&gt;" style="text;html=1;align=center;verticalAlign=middle;resizable=0;points=[];autosize=1;rounded=0;fontStyle=0;labelBackgroundColor=none;strokeColor=#666666;fillColor=#f5f5f5;fontColor=#000000;" parent="9" vertex="1">
                    <mxGeometry y="70" width="350" height="20" as="geometry"/>
                </mxCell>
                <mxCell id="13" value="&lt;span&gt;#adresse&lt;br&gt;&lt;/span&gt;" style="text;html=1;align=center;verticalAlign=middle;resizable=0;points=[];autosize=1;rounded=0;fontStyle=0;labelBackgroundColor=none;strokeColor=#666666;fillColor=#f5f5f5;fontColor=#000000;" parent="9" vertex="1">
                    <mxGeometry y="90" width="350" height="20" as="geometry"/>
                </mxCell>
                <mxCell id="194" value="" style="line;strokeWidth=2;html=1;perimeter=backbonePerimeter;points=[];outlineConnect=0;fontSize=12;shadow=0;sketch=0;fillColor=#f5f5f5;strokeColor=#3D3D3D;fontColor=#333333;labelBorderColor=none;gradientColor=none;" vertex="1" parent="9">
                    <mxGeometry y="110" width="350" height="1" as="geometry"/>
                </mxCell>
                <mxCell id="139" value="&lt;div style=&quot;line-height: 19px; font-size: 12px;&quot;&gt;&lt;div style=&quot;font-size: 12px; line-height: 19px;&quot;&gt;&lt;font face=&quot;consolas, courier new, monospace&quot; style=&quot;font-size: 12px;&quot;&gt;+LivraisonFactory&lt;/font&gt;&lt;span style=&quot;font-family: consolas, &amp;quot;courier new&amp;quot;, monospace; font-size: 12px;&quot;&gt;(&lt;/span&gt;&lt;span style=&quot;font-family: consolas, &amp;quot;courier new&amp;quot;, monospace; font-size: 12px;&quot;&gt;string&lt;/span&gt;&lt;span style=&quot;font-family: consolas, &amp;quot;courier new&amp;quot;, monospace; font-size: 12px;&quot;&gt; &lt;/span&gt;&lt;span style=&quot;font-family: consolas, &amp;quot;courier new&amp;quot;, monospace; font-size: 12px;&quot;&gt;$pays&lt;/span&gt;&lt;span style=&quot;font-family: consolas, &amp;quot;courier new&amp;quot;, monospace; font-size: 12px;&quot;&gt;,&lt;/span&gt;&lt;span style=&quot;font-family: consolas, &amp;quot;courier new&amp;quot;, monospace; font-size: 12px;&quot;&gt;string&lt;/span&gt;&lt;span style=&quot;font-family: consolas, &amp;quot;courier new&amp;quot;, monospace; font-size: 12px;&quot;&gt; &lt;/span&gt;&lt;span style=&quot;font-family: consolas, &amp;quot;courier new&amp;quot;, monospace; font-size: 12px;&quot;&gt;$add&lt;/span&gt;&lt;span style=&quot;font-family: consolas, &amp;quot;courier new&amp;quot;, monospace; font-size: 12px;&quot;&gt;)&lt;/span&gt;&lt;/div&gt;&lt;/div&gt;" style="text;html=1;align=center;verticalAlign=middle;resizable=0;points=[];autosize=1;rounded=0;fontStyle=4;fontSize=12;labelBackgroundColor=none;strokeColor=#666666;fillColor=#f5f5f5;fontColor=#000000;" parent="9" vertex="1">
                    <mxGeometry y="111" width="350" height="30" as="geometry"/>
                </mxCell>
                <mxCell id="11" value="&lt;&lt;interface&gt;&gt;&#10;PromotionInterface" style="swimlane;fontStyle=0;childLayout=stackLayout;horizontal=1;startSize=30;horizontalStack=0;resizeParent=1;resizeParentMax=0;resizeLast=0;collapsible=1;marginBottom=0;rounded=0;labelBackgroundColor=none;swimlaneFillColor=default;strokeColor=#666666;fillColor=#f5f5f5;fontColor=#000000;" parent="1" vertex="1">
                    <mxGeometry x="-560" y="530" width="140" height="50" as="geometry"/>
                </mxCell>
                <mxCell id="59" style="edgeStyle=none;html=1;endArrow=open;endFill=0;strokeWidth=1;fontStyle=0;fontColor=#000000;labelBackgroundColor=none;strokeColor=#666666;fillColor=#f5f5f5;" parent="11" source="12" target="11" edge="1">
                    <mxGeometry relative="1" as="geometry"/>
                </mxCell>
                <mxCell id="12" value="&lt;span&gt;+promotion()&lt;/span&gt;" style="text;html=1;align=center;verticalAlign=middle;resizable=0;points=[];autosize=1;rounded=0;fontStyle=0;labelBackgroundColor=none;strokeColor=#666666;fillColor=#f5f5f5;fontColor=#000000;" parent="11" vertex="1">
                    <mxGeometry y="30" width="140" height="20" as="geometry"/>
                </mxCell>
                <mxCell id="28" style="edgeStyle=none;html=1;endArrow=block;endFill=0;strokeWidth=1;fontStyle=0;fontColor=#000000;labelBackgroundColor=none;strokeColor=#666666;fillColor=#f5f5f5;" parent="1" source="16" target="9" edge="1">
                    <mxGeometry relative="1" as="geometry"/>
                </mxCell>
                <mxCell id="16" value="LivraisonFrEntity" style="swimlane;fontStyle=0;childLayout=stackLayout;horizontal=1;startSize=30;horizontalStack=0;resizeParent=1;resizeParentMax=0;resizeLast=0;collapsible=1;marginBottom=0;rounded=0;labelBackgroundColor=none;swimlaneFillColor=default;strokeColor=#666666;fillColor=#f5f5f5;fontColor=#000000;" parent="1" vertex="1">
                    <mxGeometry x="274" y="915" width="140" height="50" as="geometry"/>
                </mxCell>
                <mxCell id="21" value="&lt;span&gt;+calculLivraison(prix)&lt;/span&gt;" style="text;html=1;align=center;verticalAlign=middle;resizable=0;points=[];autosize=1;rounded=0;fontStyle=0;labelBackgroundColor=none;strokeColor=#666666;fillColor=#f5f5f5;fontColor=#000000;" parent="16" vertex="1">
                    <mxGeometry y="30" width="140" height="20" as="geometry"/>
                </mxCell>
                <mxCell id="27" style="edgeStyle=none;html=1;endArrow=block;endFill=0;strokeWidth=1;fontStyle=0;fontColor=#000000;labelBackgroundColor=none;strokeColor=#666666;fillColor=#f5f5f5;" parent="1" source="22" target="9" edge="1">
                    <mxGeometry relative="1" as="geometry"/>
                </mxCell>
                <mxCell id="22" value="LivraisonInEuEntity" style="swimlane;fontStyle=0;childLayout=stackLayout;horizontal=1;startSize=30;horizontalStack=0;resizeParent=1;resizeParentMax=0;resizeLast=0;collapsible=1;marginBottom=0;rounded=0;labelBackgroundColor=none;swimlaneFillColor=default;strokeColor=#666666;fillColor=#f5f5f5;fontColor=#000000;" parent="1" vertex="1">
                    <mxGeometry x="449" y="915" width="140" height="50" as="geometry"/>
                </mxCell>
                <mxCell id="23" value="&lt;span&gt;+calculLivraison(prix)&lt;/span&gt;" style="text;html=1;align=center;verticalAlign=middle;resizable=0;points=[];autosize=1;rounded=0;fontStyle=0;labelBackgroundColor=none;strokeColor=#666666;fillColor=#f5f5f5;fontColor=#000000;" parent="22" vertex="1">
                    <mxGeometry y="30" width="140" height="20" as="geometry"/>
                </mxCell>
                <mxCell id="26" style="edgeStyle=none;html=1;endArrow=block;endFill=0;strokeWidth=1;fontStyle=0;fontColor=#000000;labelBackgroundColor=none;strokeColor=#666666;fillColor=#f5f5f5;" parent="1" source="24" target="9" edge="1">
                    <mxGeometry relative="1" as="geometry"/>
                </mxCell>
                <mxCell id="24" value="LivraisonOutEuEntity" style="swimlane;fontStyle=0;childLayout=stackLayout;horizontal=1;startSize=30;horizontalStack=0;resizeParent=1;resizeParentMax=0;resizeLast=0;collapsible=1;marginBottom=0;rounded=0;labelBackgroundColor=none;swimlaneFillColor=default;strokeColor=#666666;fillColor=#f5f5f5;fontColor=#000000;" parent="1" vertex="1">
                    <mxGeometry x="620" y="915" width="140" height="50" as="geometry"/>
                </mxCell>
                <mxCell id="25" value="&lt;span&gt;+calculLivraison(prix)&lt;/span&gt;" style="text;html=1;align=center;verticalAlign=middle;resizable=0;points=[];autosize=1;rounded=0;fontStyle=0;labelBackgroundColor=none;strokeColor=#666666;fillColor=#f5f5f5;fontColor=#000000;" parent="24" vertex="1">
                    <mxGeometry y="30" width="140" height="20" as="geometry"/>
                </mxCell>
                <mxCell id="30" value="&lt;&lt;abstract&gt;&gt;&#10;ProductInfoEntity" style="swimlane;fontStyle=0;childLayout=stackLayout;horizontal=1;startSize=30;horizontalStack=0;resizeParent=1;resizeParentMax=0;resizeLast=0;collapsible=1;marginBottom=0;rounded=0;labelBackgroundColor=none;swimlaneFillColor=default;strokeColor=#666666;fillColor=#f5f5f5;fontColor=#000000;" parent="1" vertex="1">
                    <mxGeometry x="-60" y="420" width="278" height="71" as="geometry"/>
                </mxCell>
                <mxCell id="31" value="&lt;span&gt;#id&lt;br&gt;&lt;/span&gt;" style="text;html=1;align=center;verticalAlign=middle;resizable=0;points=[];autosize=1;rounded=0;fontStyle=0;labelBackgroundColor=none;strokeColor=#666666;fillColor=#f5f5f5;fontColor=#000000;" parent="30" vertex="1">
                    <mxGeometry y="30" width="278" height="20" as="geometry"/>
                </mxCell>
                <mxCell id="193" value="" style="line;strokeWidth=2;html=1;perimeter=backbonePerimeter;points=[];outlineConnect=0;fontSize=12;shadow=0;sketch=0;fillColor=#f5f5f5;strokeColor=#3D3D3D;fontColor=#333333;labelBorderColor=none;gradientColor=none;" vertex="1" parent="30">
                    <mxGeometry y="50" width="278" height="1" as="geometry"/>
                </mxCell>
                <mxCell id="140" value="&lt;div style=&quot;font-family: consolas, &amp;quot;courier new&amp;quot;, monospace; line-height: 19px; font-size: 12px;&quot;&gt;&lt;div style=&quot;font-family: consolas, &amp;quot;courier new&amp;quot;, monospace; font-size: 12px; line-height: 19px;&quot;&gt;&lt;font style=&quot;font-size: 12px;&quot;&gt;+ProductInfosFactory&lt;/font&gt;&lt;span style=&quot;font-family: consolas, &amp;quot;courier new&amp;quot;, monospace; font-size: 12px;&quot;&gt;(&lt;/span&gt;&lt;span style=&quot;font-family: consolas, &amp;quot;courier new&amp;quot;, monospace; font-size: 12px;&quot;&gt;array&lt;/span&gt;&lt;span style=&quot;font-family: consolas, &amp;quot;courier new&amp;quot;, monospace; font-size: 12px;&quot;&gt; &lt;/span&gt;&lt;span style=&quot;font-family: consolas, &amp;quot;courier new&amp;quot;, monospace; font-size: 12px;&quot;&gt;$infos&lt;/span&gt;&lt;span style=&quot;font-family: consolas, &amp;quot;courier new&amp;quot;, monospace; font-size: 12px;&quot;&gt;)&lt;/span&gt;&lt;/div&gt;&lt;/div&gt;" style="text;html=1;align=center;verticalAlign=middle;resizable=0;points=[];autosize=1;rounded=0;fontStyle=4;fontSize=12;labelBackgroundColor=none;strokeColor=#666666;fillColor=#f5f5f5;fontColor=#000000;" parent="30" vertex="1">
                    <mxGeometry y="51" width="278" height="20" as="geometry"/>
                </mxCell>
                <mxCell id="63" style="edgeStyle=none;html=1;fontSize=12;endArrow=none;endFill=0;strokeWidth=1;dashed=1;fontColor=#000000;labelBackgroundColor=none;startArrow=open;startFill=0;strokeColor=#666666;fillColor=#f5f5f5;" parent="1" source="35" target="11" edge="1">
                    <mxGeometry relative="1" as="geometry"/>
                </mxCell>
                <mxCell id="164" value="brand" style="edgeStyle=none;html=1;labelBackgroundColor=none;fontSize=12;fontColor=#000000;startArrow=none;startFill=0;endArrow=open;endFill=0;strokeWidth=1;strokeColor=#666666;fillColor=#f5f5f5;" parent="1" source="35" target="71" edge="1">
                    <mxGeometry x="0.5904" y="14" relative="1" as="geometry">
                        <mxPoint x="-1" as="offset"/>
                        <mxPoint x="-360" y="640" as="sourcePoint"/>
                    </mxGeometry>
                </mxCell>
                <mxCell id="165" value="category" style="edgeStyle=none;html=1;labelBackgroundColor=none;fontSize=12;fontColor=#000000;startArrow=none;startFill=0;endArrow=open;endFill=0;strokeWidth=1;strokeColor=#666666;fillColor=#f5f5f5;" parent="1" source="35" target="65" edge="1">
                    <mxGeometry x="0.6103" y="19" relative="1" as="geometry">
                        <Array as="points"/>
                        <mxPoint as="offset"/>
                    </mxGeometry>
                </mxCell>
                <mxCell id="35" value="&lt;&lt;abstract&gt;&gt;&#10;ProductEntity" style="swimlane;fontStyle=0;childLayout=stackLayout;horizontal=1;startSize=30;horizontalStack=0;resizeParent=1;resizeParentMax=0;resizeLast=0;collapsible=1;marginBottom=0;rounded=0;fontSize=12;labelBackgroundColor=none;swimlaneFillColor=default;strokeColor=#666666;fillColor=#f5f5f5;fontColor=#000000;" parent="1" vertex="1">
                    <mxGeometry x="-350" y="550" width="330" height="231" as="geometry"/>
                </mxCell>
                <mxCell id="36" value="&lt;span style=&quot;font-size: 12px;&quot;&gt;#id&lt;br style=&quot;font-size: 12px;&quot;&gt;&lt;/span&gt;" style="text;html=1;align=center;verticalAlign=middle;resizable=0;points=[];autosize=1;rounded=0;fontStyle=0;fontSize=12;labelBackgroundColor=none;strokeColor=#666666;fillColor=#f5f5f5;fontColor=#000000;" parent="35" vertex="1">
                    <mxGeometry y="30" width="330" height="20" as="geometry"/>
                </mxCell>
                <mxCell id="37" value="&lt;span style=&quot;font-size: 12px;&quot;&gt;#name&lt;br style=&quot;font-size: 12px;&quot;&gt;&lt;/span&gt;" style="text;html=1;align=center;verticalAlign=middle;resizable=0;points=[];autosize=1;rounded=0;fontStyle=0;fontSize=12;labelBackgroundColor=none;strokeColor=#666666;fillColor=#f5f5f5;fontColor=#000000;" parent="35" vertex="1">
                    <mxGeometry y="50" width="330" height="20" as="geometry"/>
                </mxCell>
                <mxCell id="38" value="&lt;span style=&quot;font-size: 12px;&quot;&gt;#price&lt;br style=&quot;font-size: 12px;&quot;&gt;&lt;/span&gt;" style="text;html=1;align=center;verticalAlign=middle;resizable=0;points=[];autosize=1;rounded=0;fontStyle=0;fontSize=12;labelBackgroundColor=none;strokeColor=#666666;fillColor=#f5f5f5;fontColor=#000000;" parent="35" vertex="1">
                    <mxGeometry y="70" width="330" height="20" as="geometry"/>
                </mxCell>
                <mxCell id="39" value="&lt;span style=&quot;font-size: 12px;&quot;&gt;#pictures&lt;br style=&quot;font-size: 12px;&quot;&gt;&lt;/span&gt;" style="text;html=1;align=center;verticalAlign=middle;resizable=0;points=[];autosize=1;rounded=0;fontStyle=0;fontSize=12;labelBackgroundColor=none;strokeColor=#666666;fillColor=#f5f5f5;fontColor=#000000;" parent="35" vertex="1">
                    <mxGeometry y="90" width="330" height="20" as="geometry"/>
                </mxCell>
                <mxCell id="56" value="&lt;span style=&quot;font-size: 12px;&quot;&gt;#description&lt;br style=&quot;font-size: 12px;&quot;&gt;&lt;/span&gt;" style="text;html=1;align=center;verticalAlign=middle;resizable=0;points=[];autosize=1;rounded=0;fontStyle=0;fontSize=12;labelBorderColor=none;labelBackgroundColor=none;strokeColor=#666666;fillColor=#f5f5f5;fontColor=#000000;" parent="35" vertex="1">
                    <mxGeometry y="110" width="330" height="20" as="geometry"/>
                </mxCell>
                <mxCell id="192" value="" style="line;strokeWidth=2;html=1;perimeter=backbonePerimeter;points=[];outlineConnect=0;fontSize=12;shadow=0;sketch=0;fillColor=#f5f5f5;strokeColor=#3D3D3D;fontColor=#333333;labelBorderColor=none;gradientColor=none;" vertex="1" parent="35">
                    <mxGeometry y="130" width="330" height="1" as="geometry"/>
                </mxCell>
                <mxCell id="136" value="&lt;div style=&quot;font-family: consolas, &amp;quot;courier new&amp;quot;, monospace; line-height: 19px; font-size: 12px;&quot;&gt;&lt;div style=&quot;font-family: consolas, &amp;quot;courier new&amp;quot;, monospace; font-size: 12px; line-height: 19px;&quot;&gt;&lt;span style=&quot;font-size: 12px;&quot;&gt;deletePicture&lt;/span&gt;&lt;span style=&quot;font-size: 12px;&quot;&gt;(&lt;/span&gt;&lt;span style=&quot;font-size: 12px;&quot;&gt;string&lt;/span&gt;&lt;span style=&quot;font-size: 12px;&quot;&gt; &lt;/span&gt;&lt;span style=&quot;font-size: 12px;&quot;&gt;$picture&lt;/span&gt;&lt;span style=&quot;font-size: 12px;&quot;&gt;)&lt;/span&gt;&lt;/div&gt;&lt;/div&gt;" style="text;html=1;align=center;verticalAlign=middle;resizable=0;points=[];autosize=1;rounded=0;fontStyle=0;fontSize=12;labelBackgroundColor=none;strokeColor=#666666;fillColor=#f5f5f5;fontColor=#000000;" parent="35" vertex="1">
                    <mxGeometry y="131" width="330" height="20" as="geometry"/>
                </mxCell>
                <mxCell id="57" value="&lt;div style=&quot;font-family: consolas, &amp;quot;courier new&amp;quot;, monospace; line-height: 19px; font-size: 12px;&quot;&gt;&lt;span style=&quot;font-size: 12px;&quot;&gt;setPictureAtIndex&lt;/span&gt;&lt;span style=&quot;font-size: 12px;&quot;&gt;(&lt;/span&gt;&lt;span style=&quot;font-size: 12px;&quot;&gt;string&lt;/span&gt;&lt;span style=&quot;font-size: 12px;&quot;&gt; &lt;/span&gt;&lt;span style=&quot;font-size: 12px;&quot;&gt;$picture&lt;/span&gt;&lt;span style=&quot;font-size: 12px;&quot;&gt;,&lt;/span&gt;&lt;span style=&quot;font-size: 12px;&quot;&gt; &lt;/span&gt;&lt;span style=&quot;font-size: 12px;&quot;&gt;int&lt;/span&gt;&lt;span style=&quot;font-size: 12px;&quot;&gt; &lt;/span&gt;&lt;span style=&quot;font-size: 12px;&quot;&gt;$index&lt;/span&gt;&lt;span style=&quot;font-size: 12px;&quot;&gt;)&lt;/span&gt;&lt;/div&gt;" style="text;html=1;align=center;verticalAlign=middle;resizable=0;points=[];autosize=1;rounded=0;fontStyle=0;fontSize=12;labelBackgroundColor=none;strokeColor=#666666;fillColor=#f5f5f5;fontColor=#000000;" parent="35" vertex="1">
                    <mxGeometry y="151" width="330" height="20" as="geometry"/>
                </mxCell>
                <mxCell id="55" value="&lt;div style=&quot;font-family: consolas, &amp;quot;courier new&amp;quot;, monospace; line-height: 19px; font-size: 12px;&quot;&gt;&lt;span style=&quot;font-size: 12px;&quot;&gt;addPictureAtIndex&lt;/span&gt;&lt;span style=&quot;font-size: 12px;&quot;&gt;(&lt;/span&gt;&lt;span style=&quot;font-size: 12px;&quot;&gt;string&lt;/span&gt;&lt;span style=&quot;font-size: 12px;&quot;&gt; &lt;/span&gt;&lt;span style=&quot;font-size: 12px;&quot;&gt;$picture&lt;/span&gt;&lt;span style=&quot;font-size: 12px;&quot;&gt;,&lt;/span&gt;&lt;span style=&quot;font-size: 12px;&quot;&gt; &lt;/span&gt;&lt;span style=&quot;font-size: 12px;&quot;&gt;int&lt;/span&gt;&lt;span style=&quot;font-size: 12px;&quot;&gt; &lt;/span&gt;&lt;span style=&quot;font-size: 12px;&quot;&gt;$index&lt;/span&gt;&lt;span style=&quot;font-size: 12px;&quot;&gt;)&lt;/span&gt;&lt;/div&gt;" style="text;html=1;align=center;verticalAlign=middle;resizable=0;points=[];autosize=1;rounded=0;fontStyle=0;fontSize=12;labelBackgroundColor=none;strokeColor=#666666;fillColor=#f5f5f5;fontColor=#000000;" parent="35" vertex="1">
                    <mxGeometry y="171" width="330" height="20" as="geometry"/>
                </mxCell>
                <mxCell id="52" value="&lt;div style=&quot;font-family: consolas, &amp;quot;courier new&amp;quot;, monospace; font-size: 12px; line-height: 19px;&quot;&gt;&lt;span style=&quot;font-size: 12px;&quot;&gt;getNewPrice&lt;/span&gt;&lt;span style=&quot;font-size: 12px;&quot;&gt;()&lt;/span&gt;&lt;span style=&quot;font-size: 12px;&quot;&gt;:&lt;/span&gt;&lt;span style=&quot;font-size: 12px;&quot;&gt;float&lt;/span&gt;&lt;/div&gt;" style="text;html=1;align=center;verticalAlign=middle;resizable=0;points=[];autosize=1;rounded=0;fontStyle=0;fontSize=12;labelBackgroundColor=none;strokeColor=#666666;fillColor=#f5f5f5;fontColor=#000000;" parent="35" vertex="1">
                    <mxGeometry y="191" width="330" height="20" as="geometry"/>
                </mxCell>
                <mxCell id="141" value="&lt;div style=&quot;font-family: consolas, &amp;quot;courier new&amp;quot;, monospace; line-height: 19px; font-size: 12px;&quot;&gt;&lt;div style=&quot;font-family: consolas, &amp;quot;courier new&amp;quot;, monospace; font-size: 12px; line-height: 19px;&quot;&gt;&lt;font style=&quot;font-size: 12px;&quot;&gt;+ProductFactory&lt;/font&gt;&lt;span style=&quot;font-family: consolas, &amp;quot;courier new&amp;quot;, monospace; font-size: 12px;&quot;&gt;(&lt;/span&gt;&lt;span style=&quot;font-family: consolas, &amp;quot;courier new&amp;quot;, monospace; font-size: 12px;&quot;&gt;array&lt;/span&gt;&lt;span style=&quot;font-family: consolas, &amp;quot;courier new&amp;quot;, monospace; font-size: 12px;&quot;&gt; &lt;/span&gt;&lt;span style=&quot;font-family: consolas, &amp;quot;courier new&amp;quot;, monospace; font-size: 12px;&quot;&gt;$infos&lt;/span&gt;&lt;span style=&quot;font-family: consolas, &amp;quot;courier new&amp;quot;, monospace; font-size: 12px;&quot;&gt;)&lt;/span&gt;&lt;/div&gt;&lt;/div&gt;" style="text;html=1;align=center;verticalAlign=middle;resizable=0;points=[];autosize=1;rounded=0;fontStyle=4;fontSize=12;labelBackgroundColor=none;strokeColor=#666666;fillColor=#f5f5f5;fontColor=#000000;strokeWidth=1;" parent="35" vertex="1">
                    <mxGeometry y="211" width="330" height="20" as="geometry"/>
                </mxCell>
                <mxCell id="48" style="edgeStyle=none;html=1;endArrow=block;endFill=0;strokeWidth=1;fontStyle=0;fontColor=#000000;labelBackgroundColor=none;strokeColor=#666666;fillColor=#f5f5f5;" parent="1" source="40" target="35" edge="1">
                    <mxGeometry relative="1" as="geometry"/>
                </mxCell>
                <mxCell id="40" value="MainProductEntity" style="swimlane;fontStyle=0;childLayout=stackLayout;horizontal=1;startSize=30;horizontalStack=0;resizeParent=1;resizeParentMax=0;resizeLast=0;collapsible=1;marginBottom=0;rounded=0;labelBackgroundColor=none;swimlaneFillColor=default;strokeColor=#666666;fillColor=#f5f5f5;fontColor=#000000;" parent="1" vertex="1">
                    <mxGeometry x="-160" y="855" width="140" height="50" as="geometry"/>
                </mxCell>
                <mxCell id="41" value="&lt;span&gt;+promotion()&lt;/span&gt;" style="text;html=1;align=center;verticalAlign=middle;resizable=0;points=[];autosize=1;rounded=0;fontStyle=0;labelBackgroundColor=none;strokeColor=#666666;fillColor=#f5f5f5;fontColor=#000000;" parent="40" vertex="1">
                    <mxGeometry y="30" width="140" height="20" as="geometry"/>
                </mxCell>
                <mxCell id="49" style="edgeStyle=none;html=1;endArrow=block;endFill=0;strokeWidth=1;fontStyle=0;labelBackgroundColor=none;fontColor=#000000;strokeColor=#666666;fillColor=#f5f5f5;" parent="1" source="42" target="35" edge="1">
                    <mxGeometry relative="1" as="geometry"/>
                </mxCell>
                <mxCell id="42" value="PromotionProductEntity" style="swimlane;fontStyle=0;childLayout=stackLayout;horizontal=1;startSize=30;horizontalStack=0;resizeParent=1;resizeParentMax=0;resizeLast=0;collapsible=1;marginBottom=0;rounded=0;labelBackgroundColor=none;swimlaneFillColor=default;strokeColor=#666666;fillColor=#f5f5f5;fontColor=#000000;" parent="1" vertex="1">
                    <mxGeometry x="-340" y="855" width="140" height="50" as="geometry"/>
                </mxCell>
                <mxCell id="183" value="&lt;span&gt;+promotion()&lt;/span&gt;" style="text;html=1;align=center;verticalAlign=middle;resizable=0;points=[];autosize=1;rounded=0;fontStyle=0;labelBackgroundColor=none;strokeColor=#666666;fillColor=#f5f5f5;fontColor=#000000;" parent="42" vertex="1">
                    <mxGeometry y="30" width="140" height="20" as="geometry"/>
                </mxCell>
                <mxCell id="44" value="PromotionEntity" style="swimlane;fontStyle=0;childLayout=stackLayout;horizontal=1;startSize=30;horizontalStack=0;resizeParent=1;resizeParentMax=0;resizeLast=0;collapsible=1;marginBottom=0;rounded=0;labelBackgroundColor=none;swimlaneFillColor=default;strokeColor=#666666;fillColor=#f5f5f5;fontColor=#000000;" parent="1" vertex="1">
                    <mxGeometry x="-554" y="845" width="140" height="70" as="geometry"/>
                </mxCell>
                <mxCell id="45" value="&lt;span&gt;-id&lt;/span&gt;" style="text;html=1;align=center;verticalAlign=middle;resizable=0;points=[];autosize=1;rounded=0;fontStyle=0;labelBackgroundColor=none;strokeColor=#666666;fillColor=#f5f5f5;fontColor=#000000;" parent="44" vertex="1">
                    <mxGeometry y="30" width="140" height="20" as="geometry"/>
                </mxCell>
                <mxCell id="58" value="&lt;span&gt;-promo&lt;/span&gt;" style="text;html=1;align=center;verticalAlign=middle;resizable=0;points=[];autosize=1;rounded=0;fontStyle=0;labelBackgroundColor=none;strokeColor=#666666;fillColor=#f5f5f5;fontColor=#000000;" parent="44" vertex="1">
                    <mxGeometry y="50" width="140" height="20" as="geometry"/>
                </mxCell>
                <mxCell id="65" value="CategoryEntity" style="swimlane;fontStyle=0;childLayout=stackLayout;horizontal=1;startSize=30;horizontalStack=0;resizeParent=1;resizeParentMax=0;resizeLast=0;collapsible=1;marginBottom=0;rounded=0;labelBackgroundColor=none;swimlaneFillColor=default;strokeColor=#666666;fillColor=#f5f5f5;fontColor=#000000;" parent="1" vertex="1">
                    <mxGeometry x="-650" y="610" width="140" height="70" as="geometry"/>
                </mxCell>
                <mxCell id="66" value="&lt;span&gt;-id&lt;/span&gt;" style="text;html=1;align=center;verticalAlign=middle;resizable=0;points=[];autosize=1;rounded=0;fontStyle=0;labelBackgroundColor=none;strokeColor=#666666;fillColor=#f5f5f5;fontColor=#000000;" parent="65" vertex="1">
                    <mxGeometry y="30" width="140" height="20" as="geometry"/>
                </mxCell>
                <mxCell id="67" value="&lt;span&gt;-name&lt;/span&gt;" style="text;html=1;align=center;verticalAlign=middle;resizable=0;points=[];autosize=1;rounded=0;fontStyle=0;labelBackgroundColor=none;strokeColor=#666666;fillColor=#f5f5f5;fontColor=#000000;" parent="65" vertex="1">
                    <mxGeometry y="50" width="140" height="20" as="geometry"/>
                </mxCell>
                <mxCell id="71" value="BrandEntity" style="swimlane;fontStyle=0;childLayout=stackLayout;horizontal=1;startSize=30;horizontalStack=0;resizeParent=1;resizeParentMax=0;resizeLast=0;collapsible=1;marginBottom=0;rounded=0;labelBackgroundColor=none;swimlaneFillColor=default;strokeColor=#666666;fillColor=#f5f5f5;fontColor=#000000;" parent="1" vertex="1">
                    <mxGeometry x="-610" y="730" width="140" height="70" as="geometry"/>
                </mxCell>
                <mxCell id="72" value="&lt;span&gt;-id&lt;/span&gt;" style="text;html=1;align=center;verticalAlign=middle;resizable=0;points=[];autosize=1;rounded=0;fontStyle=0;labelBackgroundColor=none;strokeColor=#666666;fillColor=#f5f5f5;fontColor=#000000;" parent="71" vertex="1">
                    <mxGeometry y="30" width="140" height="20" as="geometry"/>
                </mxCell>
                <mxCell id="73" value="&lt;span&gt;-name&lt;/span&gt;" style="text;html=1;align=center;verticalAlign=middle;resizable=0;points=[];autosize=1;rounded=0;fontStyle=0;labelBackgroundColor=none;strokeColor=#666666;fillColor=#f5f5f5;fontColor=#000000;" parent="71" vertex="1">
                    <mxGeometry y="50" width="140" height="20" as="geometry"/>
                </mxCell>
                <mxCell id="74" value="ColorEntity" style="swimlane;fontStyle=0;childLayout=stackLayout;horizontal=1;startSize=30;horizontalStack=0;resizeParent=1;resizeParentMax=0;resizeLast=0;collapsible=1;marginBottom=0;rounded=0;labelBackgroundColor=none;swimlaneFillColor=default;strokeColor=#666666;fillColor=#f5f5f5;fontColor=#000000;" parent="1" vertex="1">
                    <mxGeometry x="-310" y="425" width="140" height="70" as="geometry"/>
                </mxCell>
                <mxCell id="76" value="&lt;span&gt;-name&lt;/span&gt;" style="text;html=1;align=center;verticalAlign=middle;resizable=0;points=[];autosize=1;rounded=0;fontStyle=0;labelBackgroundColor=none;strokeColor=#666666;fillColor=#f5f5f5;fontColor=#000000;" parent="74" vertex="1">
                    <mxGeometry y="30" width="140" height="20" as="geometry"/>
                </mxCell>
                <mxCell id="75" value="&lt;span&gt;-code&lt;/span&gt;" style="text;html=1;align=center;verticalAlign=middle;resizable=0;points=[];autosize=1;rounded=0;fontStyle=0;labelBackgroundColor=none;strokeColor=#666666;fillColor=#f5f5f5;fontColor=#000000;" parent="74" vertex="1">
                    <mxGeometry y="50" width="140" height="20" as="geometry"/>
                </mxCell>
                <mxCell id="169" value="login" style="edgeStyle=none;html=1;labelBackgroundColor=none;fontSize=12;fontColor=#000000;startArrow=none;startFill=0;endArrow=open;endFill=0;strokeWidth=1;strokeColor=#666666;fillColor=#f5f5f5;" parent="1" source="83" target="87" edge="1">
                    <mxGeometry x="0.7982" y="20" relative="1" as="geometry">
                        <mxPoint as="offset"/>
                    </mxGeometry>
                </mxCell>
                <mxCell id="171" value="prodref" style="edgeStyle=none;html=1;labelBackgroundColor=none;fontSize=12;fontColor=#000000;startArrow=none;startFill=0;endArrow=open;endFill=0;strokeWidth=1;strokeColor=#666666;fillColor=#f5f5f5;" parent="1" source="83" target="30" edge="1">
                    <mxGeometry x="0.7845" y="-28" relative="1" as="geometry">
                        <mxPoint as="offset"/>
                    </mxGeometry>
                </mxCell>
                <mxCell id="83" value="CommandeEntity" style="swimlane;fontStyle=0;childLayout=stackLayout;horizontal=1;startSize=30;horizontalStack=0;resizeParent=1;resizeParentMax=0;resizeLast=0;collapsible=1;marginBottom=0;rounded=0;labelBackgroundColor=none;swimlaneFillColor=default;strokeColor=#666666;fillColor=#f5f5f5;fontColor=#000000;" parent="1" vertex="1">
                    <mxGeometry x="30" y="705" width="140" height="110" as="geometry"/>
                </mxCell>
                <mxCell id="84" value="&lt;span&gt;-id&lt;/span&gt;" style="text;html=1;align=center;verticalAlign=middle;resizable=0;points=[];autosize=1;rounded=0;fontStyle=0;labelBackgroundColor=none;strokeColor=#666666;fillColor=#f5f5f5;fontColor=#000000;" parent="83" vertex="1">
                    <mxGeometry y="30" width="140" height="20" as="geometry"/>
                </mxCell>
                <mxCell id="85" value="&lt;span&gt;-price&lt;/span&gt;" style="text;html=1;align=center;verticalAlign=middle;resizable=0;points=[];autosize=1;rounded=0;fontStyle=0;labelBackgroundColor=none;strokeColor=#666666;fillColor=#f5f5f5;fontColor=#000000;" parent="83" vertex="1">
                    <mxGeometry y="50" width="140" height="20" as="geometry"/>
                </mxCell>
                <mxCell id="92" value="&lt;span&gt;-quantity&lt;/span&gt;" style="text;html=1;align=center;verticalAlign=middle;resizable=0;points=[];autosize=1;rounded=0;fontStyle=0;fontSize=12;labelBackgroundColor=none;strokeColor=#666666;fillColor=#f5f5f5;fontColor=#000000;" parent="83" vertex="1">
                    <mxGeometry y="70" width="140" height="20" as="geometry"/>
                </mxCell>
                <mxCell id="96" value="&lt;span&gt;-time&lt;/span&gt;" style="text;html=1;align=center;verticalAlign=middle;resizable=0;points=[];autosize=1;rounded=0;fontStyle=0;fontSize=12;labelBackgroundColor=none;strokeColor=#666666;fillColor=#f5f5f5;fontColor=#000000;" parent="83" vertex="1">
                    <mxGeometry y="90" width="140" height="20" as="geometry"/>
                </mxCell>
                <mxCell id="87" value="UserEntity" style="swimlane;fontStyle=0;childLayout=stackLayout;horizontal=1;startSize=30;horizontalStack=0;resizeParent=1;resizeParentMax=0;resizeLast=0;collapsible=1;marginBottom=0;rounded=0;labelBackgroundColor=none;swimlaneFillColor=default;strokeColor=#666666;fillColor=#f5f5f5;fontColor=#000000;" parent="1" vertex="1">
                    <mxGeometry x="330" y="430" width="140" height="131" as="geometry"/>
                </mxCell>
                <mxCell id="88" value="&lt;span&gt;-email&lt;/span&gt;" style="text;html=1;align=center;verticalAlign=middle;resizable=0;points=[];autosize=1;rounded=0;fontStyle=0;labelBackgroundColor=none;strokeColor=#666666;fillColor=#f5f5f5;fontColor=#000000;" parent="87" vertex="1">
                    <mxGeometry y="30" width="140" height="20" as="geometry"/>
                </mxCell>
                <mxCell id="130" value="&lt;span&gt;-pseudo&lt;/span&gt;" style="text;html=1;align=center;verticalAlign=middle;resizable=0;points=[];autosize=1;rounded=0;fontStyle=0;labelBackgroundColor=none;strokeColor=#666666;fillColor=#f5f5f5;fontColor=#000000;" parent="87" vertex="1">
                    <mxGeometry y="50" width="140" height="20" as="geometry"/>
                </mxCell>
                <mxCell id="129" value="&lt;span&gt;-password&lt;/span&gt;" style="text;html=1;align=center;verticalAlign=middle;resizable=0;points=[];autosize=1;rounded=0;fontStyle=0;labelBackgroundColor=none;strokeColor=#666666;fillColor=#f5f5f5;fontColor=#000000;" parent="87" vertex="1">
                    <mxGeometry y="70" width="140" height="20" as="geometry"/>
                </mxCell>
                <mxCell id="89" value="&lt;span&gt;-status&lt;/span&gt;" style="text;html=1;align=center;verticalAlign=middle;resizable=0;points=[];autosize=1;rounded=0;fontStyle=0;labelBackgroundColor=none;strokeColor=#666666;fillColor=#f5f5f5;fontColor=#000000;" parent="87" vertex="1">
                    <mxGeometry y="90" width="140" height="20" as="geometry"/>
                </mxCell>
                <mxCell id="195" value="" style="line;strokeWidth=2;html=1;perimeter=backbonePerimeter;points=[];outlineConnect=0;fontSize=12;shadow=0;sketch=0;fillColor=#f5f5f5;strokeColor=#3D3D3D;fontColor=#333333;labelBorderColor=none;gradientColor=none;" vertex="1" parent="87">
                    <mxGeometry y="110" width="140" height="1" as="geometry"/>
                </mxCell>
                <mxCell id="178" value="&lt;span&gt;+saveToMemento()&lt;/span&gt;" style="text;html=1;align=center;verticalAlign=middle;resizable=0;points=[];autosize=1;rounded=0;fontStyle=0;labelBackgroundColor=none;strokeColor=#666666;fillColor=#f5f5f5;fontColor=#000000;" parent="87" vertex="1">
                    <mxGeometry y="111" width="140" height="20" as="geometry"/>
                </mxCell>
                <mxCell id="101" value="same id" style="edgeStyle=none;html=1;labelBackgroundColor=none;fontSize=12;fontColor=#000000;endArrow=none;endFill=0;strokeWidth=1;strokeColor=#666666;fillColor=#f5f5f5;" parent="1" source="84" target="10" edge="1">
                    <mxGeometry y="10" relative="1" as="geometry">
                        <mxPoint as="offset"/>
                    </mxGeometry>
                </mxCell>
                <mxCell id="108" value="ProductInfosClothes" style="swimlane;fontStyle=0;childLayout=stackLayout;horizontal=1;startSize=30;horizontalStack=0;resizeParent=1;resizeParentMax=0;resizeLast=0;collapsible=1;marginBottom=0;rounded=0;labelBackgroundColor=none;swimlaneFillColor=default;strokeColor=#666666;fillColor=#f5f5f5;fontColor=#000000;" parent="1" vertex="1">
                    <mxGeometry x="-370" y="270" width="140" height="70" as="geometry"/>
                </mxCell>
                <mxCell id="109" value="&lt;span&gt;-size&lt;/span&gt;" style="text;html=1;align=center;verticalAlign=middle;resizable=0;points=[];autosize=1;rounded=0;fontStyle=0;labelBackgroundColor=none;strokeColor=#666666;fillColor=#f5f5f5;fontColor=#000000;" parent="108" vertex="1">
                    <mxGeometry y="30" width="140" height="20" as="geometry"/>
                </mxCell>
                <mxCell id="111" value="&lt;span&gt;-quantity&lt;/span&gt;" style="text;html=1;align=center;verticalAlign=middle;resizable=0;points=[];autosize=1;rounded=0;fontStyle=0;labelBackgroundColor=none;strokeColor=#666666;fillColor=#f5f5f5;fontColor=#000000;" parent="108" vertex="1">
                    <mxGeometry y="50" width="140" height="20" as="geometry"/>
                </mxCell>
                <mxCell id="112" value="ProductInfosInches" style="swimlane;fontStyle=0;childLayout=stackLayout;horizontal=1;startSize=30;horizontalStack=0;resizeParent=1;resizeParentMax=0;resizeLast=0;collapsible=1;marginBottom=0;rounded=0;labelBackgroundColor=none;swimlaneFillColor=default;strokeColor=#666666;fillColor=#f5f5f5;fontColor=#000000;" parent="1" vertex="1">
                    <mxGeometry x="-200" y="270" width="140" height="70" as="geometry"/>
                </mxCell>
                <mxCell id="113" value="&lt;span&gt;-size&lt;/span&gt;" style="text;html=1;align=center;verticalAlign=middle;resizable=0;points=[];autosize=1;rounded=0;fontStyle=0;labelBackgroundColor=none;strokeColor=#666666;fillColor=#f5f5f5;fontColor=#000000;" parent="112" vertex="1">
                    <mxGeometry y="30" width="140" height="20" as="geometry"/>
                </mxCell>
                <mxCell id="114" value="&lt;span&gt;-quantity&lt;/span&gt;" style="text;html=1;align=center;verticalAlign=middle;resizable=0;points=[];autosize=1;rounded=0;fontStyle=0;labelBackgroundColor=none;strokeColor=#666666;fillColor=#f5f5f5;fontColor=#000000;" parent="112" vertex="1">
                    <mxGeometry y="50" width="140" height="20" as="geometry"/>
                </mxCell>
                <mxCell id="122" style="edgeStyle=none;html=1;labelBackgroundColor=none;fontSize=12;fontColor=#000000;endArrow=block;endFill=0;strokeWidth=1;strokeColor=#666666;fillColor=#f5f5f5;" parent="1" source="115" target="30" edge="1">
                    <mxGeometry relative="1" as="geometry"/>
                </mxCell>
                <mxCell id="115" value="ProductInfosMillimeters" style="swimlane;fontStyle=0;childLayout=stackLayout;horizontal=1;startSize=30;horizontalStack=0;resizeParent=1;resizeParentMax=0;resizeLast=0;collapsible=1;marginBottom=0;rounded=0;labelBackgroundColor=none;swimlaneFillColor=default;strokeColor=#666666;fillColor=#f5f5f5;fontColor=#000000;" parent="1" vertex="1">
                    <mxGeometry x="-30" y="270" width="140" height="70" as="geometry"/>
                </mxCell>
                <mxCell id="116" value="&lt;span&gt;-size&lt;/span&gt;" style="text;html=1;align=center;verticalAlign=middle;resizable=0;points=[];autosize=1;rounded=0;fontStyle=0;labelBackgroundColor=none;strokeColor=#666666;fillColor=#f5f5f5;fontColor=#000000;" parent="115" vertex="1">
                    <mxGeometry y="30" width="140" height="20" as="geometry"/>
                </mxCell>
                <mxCell id="117" value="&lt;span&gt;-quantity&lt;/span&gt;" style="text;html=1;align=center;verticalAlign=middle;resizable=0;points=[];autosize=1;rounded=0;fontStyle=0;labelBackgroundColor=none;strokeColor=#666666;fillColor=#f5f5f5;fontColor=#000000;" parent="115" vertex="1">
                    <mxGeometry y="50" width="140" height="20" as="geometry"/>
                </mxCell>
                <mxCell id="121" style="edgeStyle=none;html=1;labelBackgroundColor=none;fontSize=12;fontColor=#000000;endArrow=block;endFill=0;strokeWidth=1;strokeColor=#666666;fillColor=#f5f5f5;" parent="1" source="118" target="30" edge="1">
                    <mxGeometry relative="1" as="geometry"/>
                </mxCell>
                <mxCell id="118" value="ProductInfosShoes" style="swimlane;fontStyle=0;childLayout=stackLayout;horizontal=1;startSize=30;horizontalStack=0;resizeParent=1;resizeParentMax=0;resizeLast=0;collapsible=1;marginBottom=0;rounded=0;labelBackgroundColor=none;swimlaneFillColor=default;strokeColor=#666666;fillColor=#f5f5f5;fontColor=#000000;" parent="1" vertex="1">
                    <mxGeometry x="140" y="270" width="140" height="70" as="geometry"/>
                </mxCell>
                <mxCell id="119" value="&lt;span&gt;-size&lt;/span&gt;" style="text;html=1;align=center;verticalAlign=middle;resizable=0;points=[];autosize=1;rounded=0;fontStyle=0;labelBackgroundColor=none;strokeColor=#666666;fillColor=#f5f5f5;fontColor=#000000;" parent="118" vertex="1">
                    <mxGeometry y="30" width="140" height="20" as="geometry"/>
                </mxCell>
                <mxCell id="120" value="&lt;span&gt;-quantity&lt;/span&gt;" style="text;html=1;align=center;verticalAlign=middle;resizable=0;points=[];autosize=1;rounded=0;fontStyle=0;labelBackgroundColor=none;strokeColor=#666666;fillColor=#f5f5f5;fontColor=#000000;" parent="118" vertex="1">
                    <mxGeometry y="50" width="140" height="20" as="geometry"/>
                </mxCell>
                <mxCell id="123" style="edgeStyle=none;html=1;labelBackgroundColor=none;fontSize=12;fontColor=#000000;endArrow=block;endFill=0;strokeWidth=1;strokeColor=#666666;fillColor=#f5f5f5;" parent="1" source="114" target="30" edge="1">
                    <mxGeometry relative="1" as="geometry"/>
                </mxCell>
                <mxCell id="124" style="edgeStyle=none;html=1;labelBackgroundColor=none;fontSize=12;fontColor=#000000;endArrow=block;endFill=0;strokeWidth=1;strokeColor=#666666;fillColor=#f5f5f5;" parent="1" source="111" target="30" edge="1">
                    <mxGeometry relative="1" as="geometry"/>
                </mxCell>
                <mxCell id="170" value="previous" style="edgeStyle=none;html=1;labelBackgroundColor=none;fontSize=12;fontColor=#000000;startArrow=none;startFill=0;endArrow=open;endFill=0;strokeWidth=1;strokeColor=#666666;fillColor=#f5f5f5;" parent="1" source="131" target="87" edge="1">
                    <mxGeometry x="0.8335" y="-24" relative="1" as="geometry">
                        <mxPoint x="1" as="offset"/>
                    </mxGeometry>
                </mxCell>
                <mxCell id="131" value="UserMementoEntity" style="swimlane;fontStyle=0;childLayout=stackLayout;horizontal=1;startSize=30;horizontalStack=0;resizeParent=1;resizeParentMax=0;resizeLast=0;collapsible=1;marginBottom=0;rounded=0;labelBackgroundColor=none;swimlaneFillColor=default;strokeColor=#666666;fillColor=#f5f5f5;fontColor=#000000;" parent="1" vertex="1">
                    <mxGeometry x="480" y="290" width="140" height="90" as="geometry"/>
                </mxCell>
                <mxCell id="181" value="" style="text;html=1;align=center;verticalAlign=middle;resizable=0;points=[];autosize=1;rounded=0;fontStyle=0;labelBackgroundColor=none;strokeColor=#666666;fillColor=#f5f5f5;fontColor=#000000;" parent="131" vertex="1">
                    <mxGeometry y="30" width="140" height="40" as="geometry"/>
                </mxCell>
                <mxCell id="182" value="&lt;span&gt;+getPrevious()&lt;/span&gt;" style="text;html=1;align=center;verticalAlign=middle;resizable=0;points=[];autosize=1;rounded=0;fontStyle=0;labelBackgroundColor=none;strokeColor=#666666;fillColor=#f5f5f5;fontColor=#000000;" parent="131" vertex="1">
                    <mxGeometry y="70" width="140" height="20" as="geometry"/>
                </mxCell>
                <mxCell id="163" value="promo" style="edgeStyle=none;html=1;labelBackgroundColor=none;fontSize=12;fontColor=#000000;startArrow=none;startFill=0;endArrow=open;endFill=0;strokeWidth=1;strokeColor=#666666;fillColor=#f5f5f5;" parent="1" source="42" target="44" edge="1">
                    <mxGeometry x="0.5451" y="-17" relative="1" as="geometry">
                        <mxPoint as="offset"/>
                        <mxPoint x="-310" y="880" as="sourcePoint"/>
                    </mxGeometry>
                </mxCell>
                <mxCell id="166" style="edgeStyle=none;html=1;labelBackgroundColor=none;fontSize=12;fontColor=#000000;startArrow=none;startFill=0;endArrow=open;endFill=0;strokeWidth=1;strokeColor=#666666;fillColor=#f5f5f5;" parent="1" source="140" target="35" edge="1">
                    <mxGeometry relative="1" as="geometry"/>
                </mxCell>
                <mxCell id="168" value="color" style="edgeStyle=none;html=1;labelBackgroundColor=none;fontSize=12;fontColor=#000000;startArrow=none;startFill=0;endArrow=open;endFill=0;strokeWidth=1;strokeColor=#666666;fillColor=#f5f5f5;" parent="1" source="31" target="74" edge="1">
                    <mxGeometry x="0.6364" y="-10" relative="1" as="geometry">
                        <mxPoint as="offset"/>
                    </mxGeometry>
                </mxCell>
            </root>
        </mxGraphModel>
    </diagram>
</mxfile>